<?xml version="1.0" encoding="UTF-8"?>
<svg width="24" height="24" viewBox="0 0 24 24" fill="none" xmlns="http://www.w3.org/2000/svg" aria-hidden="true" focusable="false">
  <circle cx="12" cy="12" r="11" fill="#FFFFFF" stroke="#E5E7EB"/>
  <path d="M15.5 8.5c-.8 0-1.6.5-2 .5-.4 0-1.2-.5-2-.5-1.6 0-3.4 1.4-3.4 4.1 0 2.5 1.6 5.4 3.6 5.4.7 0 1-.4 1.8-.4.8 0 1.1.4 1.8.4 1.2 0 2.4-1.5 3-2.7-.9-.4-1.6-1.2-1.6-2.3 0-1 .6-1.9 1.6-2.3-.4-1.1-1.6-2.3-3.4-2.3zM13.9 6.2c.4-.5.7-1.1.7-1.7 0-.1 0-.2 0-.3-.6.1-1.2.5-1.6 1-.4.4-.7 1-.7 1.6 0 .1 0 .2 0 .3.7 0 1.2-.3 1.6-.9z" fill="#1F2937"/>
</svg>
