<?xml version="1.0" encoding="UTF-8"?>
<svg width="24" height="24" viewBox="0 0 24 24" fill="none" xmlns="http://www.w3.org/2000/svg" aria-hidden="true" focusable="false">
  <circle cx="12" cy="12" r="11" fill="#FFFFFF" stroke="#E5E7EB"/>
  <path d="M12.01 6.5c2.02 0 3.31.87 4.07 1.6l-1.77 1.83c-.48-.45-1.17-.96-2.3-.96-1.97 0-3.57 1.62-3.57 3.63 0 2.01 1.6 3.63 3.57 3.63 2.04 0 3.35-1.3 3.54-2.49h-3.54v-2.26h6c.07.38.1.76.1 1.17 0 3.53-2.37 6.04-6.06 6.04-3.53 0-6.41-2.87-6.41-6.4 0-3.53 2.88-6.41 6.41-6.41z" fill="#1F2937"/>
</svg>
